<svg width="40" height="48" viewBox="0 0 40 48" fill="none" xmlns="http://www.w3.org/2000/svg">
<path d="M3.63167 0.785278C0.969823 0.785278 0 1.76542 0 4.41695V36.452C0 36.7512 0.0206347 37.0298 0.0412692 37.2877C0.11349 37.8655 0.11349 38.4329 0.649987 39.0726C0.701574 39.1448 1.24839 39.5472 1.24839 39.5472C1.54759 39.6916 1.74362 39.7948 2.07377 39.9289L18.1996 46.6971C19.0353 47.0788 19.3861 47.2336 19.9948 47.2129H20.0052C20.6139 47.2336 20.975 47.0788 21.8004 46.6971L37.9159 39.9393C38.2564 39.8051 38.4524 39.702 38.7516 39.5575C38.7516 39.5575 39.2984 39.1448 39.35 39.0829C39.8968 38.4536 39.8968 37.8861 39.9587 37.298C39.9794 37.0401 40 36.7615 40 36.4623V4.41695C40 1.76542 39.0199 0.785278 36.3683 0.785278H3.63167ZM29.4661 6.80024H30.7764C32.9636 6.80024 34.0469 7.86292 34.0469 10.0914V13.7231H31.3851V10.2359C31.3851 9.52399 31.0653 9.20416 30.374 9.20416H29.92C29.2082 9.20416 28.8883 9.52399 28.8883 10.2359V21.4817C28.8883 22.1936 29.2082 22.5134 29.92 22.5134H30.4256C31.1065 22.5134 31.4264 22.1936 31.4264 21.4817V17.458H34.0882V21.6055C34.0882 23.8134 33.0049 24.907 30.797 24.907H29.4558C27.2479 24.907 26.1646 23.8134 26.1646 21.6055V10.1018C26.1852 7.89387 27.2582 6.80024 29.4661 6.80024ZM5.89115 6.955H11.9164V9.42082H8.59427V14.4556H11.7926V16.9215H8.59427V22.2864H11.9577V24.7626H5.89115V6.955ZM13.2783 6.955H17.529C19.7266 6.955 20.8202 8.04863 20.8202 10.2668V15.0025C20.8202 17.2103 19.7266 18.304 17.529 18.304H15.9917V24.7626H13.2783V6.955ZM22.0377 6.955H24.7408V24.7626H22.0377V6.955ZM15.9814 9.3486V15.9104H17.0957C17.7766 15.9104 18.0965 15.5802 18.0965 14.8683V10.3906C18.0965 9.67875 17.7766 9.3486 17.0957 9.3486H15.9814ZM8.52205 28.9823H8.92443L9.01728 29.003H9.16172L9.23394 29.0236H9.30616L9.37839 29.0442L9.45061 29.0649L9.51251 29.0855L9.64663 29.1165L9.71885 29.1371L9.77044 29.1577L9.83235 29.1784L9.90457 29.199L9.95615 29.2196L10.0284 29.2506L10.1006 29.2815L10.1625 29.3228L10.2347 29.3538L10.2863 29.395L10.3585 29.4363L10.4204 29.4776L10.4823 29.5085L10.5442 29.5498L10.6061 29.5911L10.6577 29.6323L10.8434 29.7664L10.8022 29.8284L10.7506 29.8799L10.7093 29.9315L10.6577 29.9934L10.6165 30.045L10.5752 30.0966L10.5236 30.1482L10.4823 30.2101L10.4411 30.2617L10.3895 30.3236L10.3482 30.3752L10.2966 30.4371L10.2554 30.4887L10.2141 30.5506L10.1625 30.6021L10.1212 30.664L10.0696 30.7156L10.0284 30.7672L9.97679 30.726L9.91488 30.6744L9.85298 30.6331L9.73949 30.5609L9.66727 30.5196L9.60537 30.4783L9.53314 30.4371L9.48156 30.4061L9.41965 30.3752L9.29585 30.3339L9.22363 30.3236L9.16172 30.3029L9.0895 30.2823L9.01728 30.2617L8.94506 30.2514H8.87284L8.77999 30.2307H8.63554L8.56332 30.241H8.4911L8.41888 30.2617L8.35698 30.2823L8.28476 30.3029L8.21254 30.3133L8.15063 30.3442L8.07841 30.3752L7.97524 30.4474L7.91333 30.4887L7.86175 30.5299L7.81016 30.5712L7.75858 30.6125L7.71731 30.664L7.6554 30.7156L7.58318 30.8188L7.54191 30.8807L7.51096 30.9529L7.46969 31.0045L7.42842 31.0767L7.40779 31.149L7.3562 31.2212L7.33557 31.2934L7.32525 31.3656L7.30462 31.4378L7.28398 31.5101V31.5823L7.27366 31.6545V31.8299L7.28398 31.9021V31.964L7.2943 32.0362L7.30462 32.1085L7.32525 32.1704L7.33557 32.2426L7.3562 32.3045L7.37684 32.3561L7.40779 32.4283L7.44906 32.5005L7.48001 32.5521L7.55223 32.6759L7.5935 32.7378L7.63477 32.7894L7.69667 32.8307L7.73794 32.8823L7.78953 32.9235L7.91333 33.0164L7.96492 33.0473L8.02682 33.0886L8.09905 33.1196L8.17127 33.1505L8.22285 33.1815L8.37761 33.2227L8.44983 33.233L8.52205 33.2537L8.59427 33.264H8.91411L9.00696 33.2537H9.07918L9.15141 33.2227L9.22363 33.2124L9.29585 33.1918L9.35775 33.1711L9.42997 33.1402L9.49187 33.1092L9.5641 33.0783L9.60537 33.0473L9.66727 33.0061V32.3354H8.60459V31.2521H11.0188V33.6664L10.9672 33.7076L10.9157 33.7489L10.8641 33.7902L10.8022 33.8314L10.7403 33.8624L10.6887 33.9037L10.5649 33.9759L10.4926 34.0172L10.3688 34.0894L10.2966 34.1203L10.2347 34.1513L10.1625 34.1822L10.0077 34.2441L9.94584 34.2751L9.81171 34.3164L9.73949 34.337L9.66727 34.3576L9.59505 34.3783L9.53314 34.3886L9.30616 34.4298L9.23394 34.4402L9.07918 34.4608L8.99665 34.4711L8.92443 34.4814L8.84189 34.4918H8.46015L8.38793 34.4814H8.31571L8.24349 34.4608H8.18158L8.10936 34.4402L7.8927 34.3989L7.8308 34.3783L7.75858 34.3679L7.68636 34.337L7.55223 34.2957L7.41811 34.2338L7.34589 34.2029L7.2943 34.1719L7.22208 34.141L7.17049 34.0997L7.09827 34.0687L7.057 34.0275L6.9951 33.9862L6.87129 33.8933L6.80939 33.8521L6.76812 33.8108L6.70622 33.7695L6.60304 33.6767L6.55146 33.6354L6.51019 33.5838L6.4586 33.5322L6.41733 33.4703L6.37606 33.4291L6.3348 33.3672L6.29353 33.3053L6.25226 33.2537L6.21099 33.1918L6.16972 33.1196L6.13877 33.0577L6.10781 32.9854L6.07686 32.9235L6.01496 32.7894L5.99433 32.7378L5.96337 32.6656L5.94274 32.5934L5.93242 32.5315L5.91179 32.4593L5.89115 32.387L5.87052 32.3148L5.8602 32.2529L5.84988 32.1807L5.82925 32.0466L5.80862 31.8918V31.5307L5.82925 31.4585V31.3863L5.84988 31.314V31.2212L5.87052 31.149L5.89115 31.0767L5.92211 30.9426L5.94274 30.8704L5.96337 30.7982L6.05623 30.5918L6.08718 30.5299L6.11813 30.4577L6.1594 30.3855L6.19035 30.3236L6.23162 30.272L6.30384 30.1482L6.34511 30.0863L6.38638 30.0347L6.42765 29.9728L6.53082 29.8696L6.57209 29.818L6.62368 29.7664L6.66495 29.7149L6.72685 29.6736L6.83002 29.5807L6.89193 29.5395L6.95383 29.4982L7.00542 29.4569L7.06732 29.4157L7.12922 29.3847L7.20144 29.3434L7.27366 29.3022L7.32525 29.2609L7.39747 29.23L7.46969 29.199L7.54191 29.1577L7.60382 29.1371L7.67604 29.1165L7.73794 29.0855L7.81016 29.0752L7.88238 29.0546L7.9546 29.0339L8.01651 29.0133L8.08873 28.9927H8.16095L8.23317 28.972H8.30539L8.37761 28.9514H8.44983L8.52205 28.9823ZM31.7152 29.003H32.1176L32.2105 29.0236H32.3549L32.4271 29.0442H32.5097L32.5819 29.0649L32.716 29.0958L32.7882 29.1165L32.8605 29.1268L32.9327 29.1474L33.0049 29.168L33.0668 29.1887L33.139 29.2093L33.2112 29.23L33.2731 29.2609L33.3454 29.2919L33.4176 29.3228L33.4898 29.3641L33.5414 29.395L33.6136 29.4363L33.6858 29.4672L33.7477 29.5085L33.82 29.5498L33.8715 29.5911L33.9954 29.6839L34.0573 29.7252L34.016 29.7871L33.9747 29.849L33.9335 29.9006L33.8922 29.9625L33.8509 30.0347L33.8096 30.0966L33.7684 30.1482L33.7271 30.2101L33.6858 30.272L33.6446 30.3339L33.6033 30.3855L33.562 30.4474L33.5208 30.5196L33.4795 30.5815L33.4382 30.6331L33.397 30.695L33.3557 30.7569L33.2938 30.7156L33.2216 30.6744L33.17 30.6331L33.1081 30.5918L33.0359 30.5609L32.9739 30.5196L32.9017 30.4887L32.8501 30.4577L32.7779 30.4268L32.7263 30.3958L32.6644 30.3752L32.5303 30.3339L32.3755 30.2926L32.1486 30.2514L32.0764 30.241L31.9113 30.1895H31.7565L31.674 30.2101L31.6018 30.2307L31.5295 30.2514L31.4676 30.2823L31.416 30.3133L31.3541 30.3648L31.3129 30.4371L31.2819 30.5093V30.6847L31.3232 30.7672L31.3541 30.8085L31.3954 30.8498L31.4676 30.891L31.5295 30.9323L31.6018 30.9632L31.674 30.9942L31.7771 31.0148L31.8287 31.0355L31.8906 31.0561L31.9629 31.0767L32.0248 31.0974L32.097 31.118L32.1795 31.1386L32.2517 31.1593L32.3343 31.1799L32.4168 31.2005L32.489 31.2212L32.5716 31.2418L32.6438 31.2624L32.716 31.2831L32.943 31.3553L33.0049 31.3759L33.0771 31.3966L33.1493 31.4275L33.2216 31.4688L33.3763 31.5307L33.4485 31.572L33.5724 31.6442L33.6858 31.7267L33.7581 31.768L33.8096 31.8196L33.8612 31.8815L33.9128 31.9331L33.9541 31.9847L34.0057 32.0569L34.0469 32.1085L34.0779 32.1807L34.1088 32.222L34.1295 32.2942L34.1501 32.3561L34.1708 32.4283L34.2017 32.5831L34.212 32.6553L34.2223 32.7275V32.9132L34.212 32.9958L34.1914 33.1505L34.1708 33.2227L34.1501 33.2949L34.1295 33.3672L34.1088 33.4394L34.0882 33.5116L34.0573 33.5632L34.0263 33.6354L33.985 33.6973L33.9438 33.7489L33.8715 33.8727L33.7787 33.9759L33.7271 34.0172L33.6652 34.0687L33.6239 34.11L33.562 34.1513L33.5001 34.1822L33.4382 34.2235L33.366 34.2648L33.2319 34.337L33.1597 34.3679L33.0874 34.3989L33.0152 34.4195L32.943 34.4402L32.8811 34.4608L32.7263 34.4918L32.6748 34.5124L32.6025 34.533H32.5303L32.4581 34.5537H32.3859L32.3136 34.5743H31.7771L31.5502 34.5537L31.4779 34.533L31.4057 34.5227L31.251 34.4918L31.1684 34.4711L31.0962 34.4505L31.024 34.4298L30.9518 34.4092L30.8795 34.3886L30.8073 34.3679L30.7351 34.337L30.6732 34.3164L30.601 34.2957L30.5288 34.2648L30.4772 34.2338L30.405 34.2132L30.343 34.1719L30.2708 34.141L30.2089 34.0997L30.1573 34.0584L30.0851 34.0172L30.0335 33.9862L29.9716 33.9449L29.9097 33.9037L29.8478 33.8624L29.7962 33.8211L29.7343 33.7799L29.6415 33.6973L29.5796 33.6457L29.6208 33.5838L29.6724 33.5322L29.7137 33.4807L29.7653 33.4188L29.8066 33.3672L29.8478 33.3053L29.8994 33.2537L29.9407 33.2021L29.9923 33.1402L30.0335 33.0886L30.0851 33.037L30.1264 32.9751L30.1677 32.9235L30.2192 32.8616L30.2605 32.81L30.3121 32.7584L30.3637 32.6965L30.4153 32.7378L30.4875 32.7791L30.5391 32.8204L30.6113 32.8616L30.6629 32.9029L30.7351 32.9442L30.797 32.9854L30.8692 33.0164L30.9208 33.0577L30.993 33.0783L31.0653 33.1092L31.1272 33.1402L31.1994 33.1608L31.2613 33.1918L31.3335 33.2124L31.4057 33.233L31.4779 33.2537L31.5502 33.264L31.6224 33.2846L31.6946 33.2949H31.7771L31.8494 33.3156H32.2621L32.3343 33.3053L32.4065 33.2846L32.4581 33.2743L32.52 33.2537L32.5716 33.2227L32.6438 33.1815L32.6851 33.1299L32.716 33.068L32.7367 32.9958V32.8204L32.7057 32.7481L32.6644 32.6862L32.6335 32.6656L32.5613 32.6243L32.5097 32.6037L32.4375 32.5727L32.3652 32.5418L32.2827 32.5005L32.2311 32.4799L32.1692 32.4593L32.097 32.4386L32.0454 32.4283L31.9732 32.4077L31.901 32.3973L31.8287 32.3664L31.7565 32.3561L31.674 32.3354L31.6018 32.3148L31.5295 32.2942L31.4573 32.2735L31.3851 32.2529L31.3129 32.2323L31.2406 32.2116L31.1787 32.191L31.0446 32.1497L30.9724 32.1188L30.9002 32.0981L30.7454 32.0362L30.6732 31.995L30.601 31.9537L30.5494 31.9124L30.4772 31.8712L30.4256 31.8299L30.3534 31.7886L30.2502 31.6855L30.1986 31.6442L30.1058 31.541L30.0645 31.4894L30.0335 31.4378L29.9923 31.3656L29.9716 31.314L29.8994 31.1283L29.8891 31.0561L29.8685 30.9839V30.9117L29.8478 30.8394V30.5299L29.8685 30.3752L29.8891 30.3133L29.8994 30.241L29.92 30.1791L29.9407 30.1069L29.9716 30.0553L30.0026 29.9831L30.0335 29.9212L30.0645 29.849L30.1058 29.7974L30.1573 29.7355L30.1986 29.6736L30.2605 29.622L30.3018 29.5704L30.343 29.5085L30.4153 29.4569L30.4565 29.4157L30.5184 29.3744L30.6422 29.3022L30.7145 29.2609L30.8486 29.1887L30.9105 29.168L30.9827 29.1474L31.0549 29.1165L31.1272 29.0958L31.1787 29.0752L31.251 29.0546L31.3129 29.0339L31.3851 29.0133L31.4573 28.9927L31.6121 28.9823L31.6843 28.972L31.7152 29.003ZM13.8458 29.0546H15.218L15.2799 29.1887L15.3108 29.2506L15.3314 29.3228L15.3624 29.395L15.383 29.4569L15.4243 29.5292L15.4656 29.6633L15.5068 29.7355L15.5687 29.8696L15.5894 29.9315L15.7132 30.1998L15.7338 30.272L15.7648 30.3339L15.806 30.4061L15.8267 30.4783L15.8679 30.5506L15.8783 30.6228L15.9505 30.7569L15.9814 30.8085L16.0124 30.8807L16.033 30.9529L16.0536 31.0045L16.0949 31.0767L16.1156 31.1386L16.1465 31.2109L16.1671 31.2624L16.1981 31.3347L16.2703 31.4688L16.2909 31.541L16.3116 31.6132L16.3425 31.6855L16.3838 31.7474L16.4148 31.8196L16.4457 31.8918L16.4663 31.9537L16.5282 32.0878L16.5489 32.1601L16.5798 32.2323L16.6005 32.3045L16.6314 32.3664L16.6727 32.4386L16.7036 32.5108L16.7346 32.5727L16.7552 32.645L16.8171 32.7791L16.8481 32.841L16.8687 32.9132L16.9306 33.0473L16.9719 33.1196L16.9925 33.1815L17.0338 33.2537L17.0441 33.3053L17.0751 33.3775L17.1163 33.4497L17.1473 33.5013L17.1679 33.5735L17.1989 33.6354L17.2195 33.7076L17.2608 33.7592L17.302 33.914L17.333 33.9656L17.3639 34.0378L17.4052 34.0997L17.4362 34.1719L17.4465 34.2441L17.4671 34.306L17.4981 34.3783L17.5393 34.4402H16.033L15.9917 34.3783L15.9711 34.306L15.9402 34.2338L15.9092 34.1616L15.8886 34.0997L15.8267 33.9656L15.806 33.9037L15.7441 33.7695L15.7235 33.7076L15.6925 33.6354L15.6513 33.5013L15.6203 33.4394H13.5156L13.4847 33.5116L13.464 33.5735L13.4331 33.6457L13.4021 33.718L13.3815 33.7799L13.3505 33.8521L13.3196 33.914L13.2989 33.9862L13.268 34.0481L13.237 34.1203L13.2164 34.1719L13.1855 34.2441L13.1648 34.3164L13.1339 34.3679L13.1132 34.4402H11.6172L11.6379 34.3679L11.6998 34.2338L11.7204 34.1616L11.741 34.0997L11.7823 34.0275L11.8133 33.9553L11.8442 33.8933L11.8648 33.8211L11.8958 33.7489L11.9371 33.687L11.968 33.6148L12.0093 33.4807L12.0815 33.3465L12.1021 33.2743L12.1331 33.2124L12.1537 33.1402L12.2466 32.9338L12.2775 32.8616L12.2982 32.7997L12.3188 32.7275L12.3601 32.6656L12.391 32.5934L12.4117 32.5212L12.4323 32.4593L12.4632 32.387L12.5045 32.3354L12.5251 32.2632L12.5561 32.2013L12.5767 32.1291L12.6077 32.0569L12.649 31.995L12.6696 31.9228L12.7005 31.8712L12.7212 31.7989L12.7521 31.7267L12.7831 31.6751L12.814 31.6029L12.8347 31.541L12.8656 31.4688L12.8863 31.4172L12.9275 31.345L12.9585 31.2728L12.9894 31.2109L13.0101 31.1386L13.041 31.0664L13.0823 30.9942L13.1132 30.9323L13.1339 30.8601L13.1648 30.7879L13.1958 30.726L13.2577 30.5918L13.2783 30.5299L13.3402 30.3752L13.3712 30.3236L13.4021 30.2514L13.4228 30.1895L13.4434 30.1172L13.4743 30.045L13.5156 29.9831L13.5466 29.9109L13.5672 29.8593L13.5878 29.7871L13.6188 29.7252L13.66 29.653L13.6807 29.5807L13.7013 29.5188L13.7323 29.4466L13.7632 29.395L13.8045 29.3228L13.8251 29.2506L13.8458 29.199L13.8767 29.1268L13.8458 29.0546ZM18.0861 29.0958H19.5822L19.6234 29.1577L19.6956 29.2815L19.7369 29.3538L19.7782 29.4053L19.8194 29.4776L19.8607 29.5395L19.902 29.6117L19.9433 29.6736L19.9845 29.7252L20.0258 29.7974L20.0671 29.8593L20.1187 29.9212L20.1393 29.9831L20.1806 30.0553L20.2218 30.1172L20.2631 30.1688L20.294 30.241L20.3353 30.3029L20.3766 30.3648L20.3972 30.4268L20.4488 30.499L20.5623 30.6847L20.5932 30.7466L20.6345 30.8085L20.6758 30.8704L20.717 30.9426L20.8305 31.118L20.8718 31.1902L20.9131 31.2521L20.9543 31.1902L20.9853 31.118L21.0266 31.0664L21.0678 30.9942L21.1091 30.9426L21.1401 30.8704L21.1916 30.8188L21.2329 30.7466L21.2639 30.695L21.3051 30.6331L21.3464 30.5609L21.3877 30.5093L21.4289 30.4371L21.4702 30.3855L21.5115 30.3133L21.5424 30.2617L21.5837 30.1895L21.625 30.1482L21.6662 30.0863L21.7075 30.0141L21.7488 29.9625L21.7797 29.8903L21.821 29.8387L21.8623 29.7664L21.9035 29.7252L21.9448 29.6633L21.9861 29.5911L22.0273 29.5395L22.0686 29.4672L22.1099 29.4157L22.1511 29.3434L22.1924 29.2919L22.2234 29.2196L22.2646 29.168H23.7813V34.564H22.3575V31.3863L22.3162 31.4378L22.275 31.5101L22.2337 31.5513L22.1924 31.6132L22.1615 31.6855L22.1202 31.737L22.0789 31.7886L22.0377 31.8609L21.9654 31.964L21.9242 32.0259L21.8829 32.0981L21.8416 32.1497L21.8004 32.2013L21.7694 32.2735L21.7281 32.3251L21.6869 32.3767L21.6456 32.4489L21.6043 32.5005L21.5631 32.5624L21.5218 32.6346L21.4908 32.6862L21.4496 32.7481L21.4083 32.8204L21.367 32.8719L21.3258 32.9338L21.2948 32.9958L21.2535 33.068L21.2123 33.1196L21.171 33.1815L21.1401 33.2537L21.0885 33.2949L21.0575 33.3569L21.0162 33.4291L20.975 33.4807H20.8718L20.8305 33.4084L20.7893 33.3465L20.748 33.2743L20.7067 33.2227L20.6655 33.1505L20.6242 33.0886L20.5829 33.0267L20.5417 32.9648L20.5004 32.8926L20.4591 32.841L20.4075 32.7688L20.3766 32.7069L20.3353 32.6346L20.294 32.5831L20.2528 32.5108L20.2115 32.4489L20.1702 32.3767L20.129 32.3251L20.0877 32.2529L20.0464 32.191L20.0052 32.1188L19.9639 32.0672L19.9226 31.995L19.8814 31.9331L19.8504 31.8712L19.8091 31.8093L19.7679 31.737L19.7266 31.6855L19.6853 31.6132L19.6441 31.5513L19.6131 31.4791L19.5615 31.4275L19.5306 31.3553L19.4893 31.2934V34.4711H18.0965V29.1268L18.0861 29.0958ZM24.8027 29.0958H29.0534V30.3133H26.2161V31.1799H28.7645V32.3251H26.2161V33.2434H29.0947V34.4711H24.813V29.1371L24.8027 29.0958ZM14.5061 30.7466L14.4854 30.8188L14.4648 30.8807L14.4338 30.9529L14.4029 31.0252L14.3823 31.0974L14.3204 31.2315L14.2894 31.3037L14.2688 31.3656L14.2481 31.4378L14.2172 31.4894L14.1965 31.5616L14.1656 31.6339L14.1346 31.6855L14.114 31.7577L14.0831 31.8196L14.0624 31.8918L14.0212 31.964L14.0005 32.0259L13.9696 32.0981L13.9386 32.1704L13.918 32.2323L13.887 32.3045H15.1354L15.1045 32.2323L15.0838 32.1601L15.0219 32.0259L15.0013 31.9537L14.9703 31.8918L14.9497 31.8196L14.9188 31.7474L14.8981 31.6751L14.8672 31.6132L14.8465 31.541L14.8156 31.4688L14.7846 31.4275L14.7227 31.2934L14.7124 31.2212L14.6815 31.149L14.6505 31.0767L14.6299 31.0252L14.568 30.8704L14.5473 30.7982L14.5061 30.7466ZM12.2879 40.8472H27.7844L19.871 43.4574L12.2879 40.8472Z" fill="white"/>
</svg>
