<svg width="27" height="23" viewBox="0 0 27 23" fill="none" xmlns="http://www.w3.org/2000/svg">
<path d="M25.9618 18.1876L23.7387 18.7131C23.2402 18.8343 22.8495 19.2116 22.7417 19.7101L22.2701 21.6906C22.2123 21.9338 22.088 22.156 21.9111 22.3325C21.7342 22.509 21.5116 22.6329 21.2684 22.6902C21.0252 22.7475 20.7708 22.7361 20.5337 22.6571C20.2966 22.5781 20.0861 22.4348 19.9258 22.243L13.4991 14.8597L7.07235 22.2565C6.91205 22.4482 6.70158 22.5916 6.46448 22.6706C6.22738 22.7495 5.97299 22.761 5.72974 22.7037C5.4865 22.6464 5.26399 22.5225 5.08708 22.346C4.91018 22.1695 4.78586 21.9472 4.72802 21.7041L4.25646 19.7236C4.19914 19.4812 4.07553 19.2596 3.89945 19.0836C3.72337 18.9075 3.50177 18.7839 3.25944 18.7265L1.03636 18.2011C0.803446 18.1453 0.589553 18.0285 0.416587 17.8629C0.24362 17.6972 0.117795 17.4885 0.0519951 17.2582C-0.0138043 17.0279 -0.0172136 16.7843 0.0421168 16.5522C0.101447 16.3202 0.221385 16.108 0.389649 15.9376L5.6442 10.683C6.37484 11.7726 7.32518 12.6974 8.43425 13.3982C9.54332 14.0989 10.7866 14.56 12.0844 14.752C12.5425 14.8328 13.014 14.8732 13.4991 14.8732C13.9841 14.8732 14.4557 14.8328 14.9138 14.752C17.5949 14.3612 19.8988 12.8388 21.3539 10.683L26.6085 15.9376C27.3495 16.6651 26.9857 17.9451 25.9618 18.1876ZM14.2805 1.36229L15.0754 2.95213C15.1832 3.1677 15.4662 3.38327 15.7221 3.42369L17.1638 3.66621C18.08 3.81441 18.2955 4.48807 17.6353 5.14826L16.5171 6.26653C16.3284 6.45516 16.2207 6.81893 16.288 7.0884L16.6114 8.47614C16.8674 9.56747 16.288 9.99861 15.318 9.41926L13.9706 8.62434C13.8338 8.55133 13.6811 8.51314 13.526 8.51314C13.3709 8.51314 13.2182 8.55133 13.0814 8.62434L11.7341 9.41926C10.764 9.98514 10.1847 9.56747 10.4407 8.47614L10.764 7.0884C10.8179 6.83241 10.7236 6.45516 10.535 6.26653L9.41669 5.14826C8.7565 4.48807 8.97207 3.82788 9.88825 3.66621L11.3299 3.42369C11.5724 3.38327 11.8553 3.1677 11.9631 2.95213L12.758 1.36229C13.1488 0.500005 13.8494 0.500005 14.2805 1.36229Z" fill="#FFD80E"/>
</svg>
