<svg width="20" height="21" viewBox="0 0 20 21" fill="none" xmlns="http://www.w3.org/2000/svg">
<path opacity="0.4" d="M9.99504 20.9802C15.5153 20.9802 19.9901 16.5037 19.9901 10.9813C19.9901 5.45892 15.5153 0.982422 9.99504 0.982422C4.47478 0.982422 0 5.45892 0 10.9813C0 16.5037 4.47478 20.9802 9.99504 20.9802Z" fill="white"/>
<path d="M9.99505 12.7311C10.4048 12.7311 10.7447 12.3911 10.7447 11.9812V6.98173C10.7447 6.57177 10.4048 6.23181 9.99505 6.23181C9.58525 6.23181 9.24542 6.57177 9.24542 6.98173V11.9812C9.24542 12.3911 9.58525 12.7311 9.99505 12.7311ZM10.9146 14.5999C10.8646 14.4799 10.7947 14.3699 10.7047 14.2699C10.6047 14.1799 10.4948 14.1099 10.3749 14.0599C10.1315 13.9599 9.85858 13.9599 9.61524 14.0599C9.4953 14.1099 9.38535 14.1799 9.2854 14.2699C9.19545 14.3699 9.12548 14.4799 9.0755 14.5999C9.02553 14.7199 8.99554 14.8498 8.99554 14.9798C8.99554 15.1098 9.02553 15.2398 9.0755 15.3598C9.12548 15.4898 9.19545 15.5898 9.2854 15.6897C9.38535 15.7797 9.4953 15.8497 9.61524 15.8997C9.73518 15.9497 9.86511 15.9797 9.99505 15.9797C10.125 15.9797 10.2549 15.9497 10.3749 15.8997C10.4948 15.8497 10.6047 15.7797 10.7047 15.6897C10.7947 15.5898 10.8646 15.4898 10.9146 15.3598C10.9646 15.2398 10.9946 15.1098 10.9946 14.9798C10.9946 14.8498 10.9646 14.7199 10.9146 14.5999Z" fill="white"/>
</svg>
