<svg width="20" height="21" viewBox="0 0 20 21" fill="none" xmlns="http://www.w3.org/2000/svg">
<path d="M15.498 16.8151H13.648C13.238 16.8151 12.898 16.4752 12.898 16.0652C12.898 15.6553 13.238 15.3153 13.648 15.3153H15.498C15.908 15.3153 16.248 15.6553 16.248 16.0652C16.248 16.4752 15.908 16.8151 15.498 16.8151ZM10.97 16.8151H4.5C4.09 16.8151 3.75 16.4752 3.75 16.0652C3.75 15.6553 4.09 15.3153 4.5 15.3153H10.97C11.1689 15.3153 11.3597 15.3943 11.5004 15.535C11.641 15.6756 11.72 15.8663 11.72 16.0652C11.72 16.2641 11.641 16.4549 11.5004 16.5955C11.3597 16.7361 11.1689 16.8151 10.97 16.8151ZM15.499 13.0576H9.96902C9.55902 13.0576 9.21901 12.7176 9.21901 12.3077C9.21901 11.8977 9.55902 11.5577 9.96902 11.5577H15.499C15.909 11.5577 16.249 11.8977 16.249 12.3077C16.249 12.7176 15.909 13.0576 15.499 13.0576ZM7.27001 13.0576H4.5C4.09 13.0576 3.75 12.7176 3.75 12.3077C3.75 11.8977 4.09 11.5577 4.5 11.5577H7.27001C7.68001 11.5577 8.02001 11.8977 8.02001 12.3077C8.02001 12.7176 7.68001 13.0576 7.27001 13.0576Z" fill="white"/>
<path opacity="0.4" d="M14.19 0.989014H5.81002C2.17001 0.989014 0 3.15877 0 6.79836V15.1674C0 18.817 2.17001 20.9868 5.81002 20.9868H14.18C17.82 20.9868 19.9901 18.817 19.9901 15.1774V6.79836C20.0001 3.15877 17.83 0.989014 14.19 0.989014Z" fill="white"/>
</svg>
