<svg width="20" height="20" viewBox="0 0 20 20" fill="none" xmlns="http://www.w3.org/2000/svg">
<path opacity="0.4" d="M18.03 4.81774L12.28 0.787741C10.71 -0.312259 8.31 -0.25226 6.8 0.91774L1.79 4.82774C0.78 5.60774 0 7.20774 0 8.46774V15.3677C0 17.9177 2.07 19.9977 4.61 19.9977H15.38C16.6036 19.9951 17.7761 19.5072 18.6404 18.641C19.5046 17.7749 19.99 16.6013 19.99 15.3777V8.59774C20 7.24774 19.13 5.58774 18.03 4.81774Z" fill="white"/>
<path d="M11.4001 6.50769H8.60011C6.68011 6.50769 5.11011 8.06769 5.11011 9.99769V12.7877C5.11275 13.7125 5.48129 14.5986 6.13522 15.2526C6.78915 15.9065 7.67531 16.2751 8.60011 16.2777H11.3901C13.3101 16.2777 14.8801 14.7177 14.8801 12.7877V9.99769C14.8801 8.07769 13.3201 6.50769 11.4001 6.50769ZM13.4901 9.99769V10.6977H10.7001V7.90769H11.4001C12.5501 7.90769 13.4901 8.84769 13.4901 9.99769ZM8.60011 7.90769H9.30011V10.6977H6.51011V9.99769C6.51011 8.84769 7.45011 7.90769 8.60011 7.90769ZM6.51011 12.7877V12.0877H9.30011V14.8777H8.60011C7.45011 14.8777 6.51011 13.9377 6.51011 12.7877ZM11.4001 14.8777H10.7001V12.0877H13.4901V12.7877C13.4901 13.9377 12.5501 14.8777 11.4001 14.8777Z" fill="white"/>
</svg>
