<svg width="20" height="21" viewBox="0 0 20 21" fill="none" xmlns="http://www.w3.org/2000/svg">
<path opacity="0.4" d="M1.987 13.6394L0.465468 12.1173C-0.155156 11.4964 -0.155156 10.475 0.465468 9.85412L1.987 8.33201C2.24726 8.07164 2.45747 7.56094 2.45747 7.20044V5.04745C2.45747 4.16623 3.17819 3.44523 4.05908 3.44523H6.21124C6.5716 3.44523 7.08212 3.23494 7.34238 2.97457L8.86391 1.45246C9.48453 0.831601 10.5056 0.831601 11.1262 1.45246L12.6477 2.97457C12.908 3.23494 13.4185 3.44523 13.7788 3.44523H15.931C16.8119 3.44523 17.5326 4.16623 17.5326 5.04745V7.20044C17.5326 7.56094 17.7428 8.07164 18.0031 8.33201L19.5246 9.85412C20.1452 10.475 20.1452 11.4964 19.5246 12.1173L18.0031 13.6394C17.7428 13.8997 17.5326 14.4104 17.5326 14.7709V16.9239C17.5326 17.8051 16.8119 18.5261 15.931 18.5261H13.7788C13.4185 18.5261 12.908 18.7364 12.6477 18.9968L11.1262 20.5189C10.5056 21.1398 9.48453 21.1398 8.86391 20.5189L7.34238 18.9968C7.08212 18.7364 6.5716 18.5261 6.21124 18.5261H4.05908C3.17819 18.5261 2.45747 17.8051 2.45747 16.9239V14.7709C2.45747 14.4004 2.24726 13.8897 1.987 13.6394Z" fill="white"/>
<path d="M13.0072 14.9833C12.4466 14.9833 11.9962 14.5327 11.9962 13.9819C11.9962 13.4311 12.4466 12.9805 12.9972 12.9805C13.5477 12.9805 13.9982 13.4311 13.9982 13.9819C13.9982 14.5327 13.5577 14.9833 13.0072 14.9833ZM7.01315 8.97495C6.45259 8.97495 6.00214 8.52432 6.00214 7.97356C6.00214 7.42279 6.45259 6.97217 7.00314 6.97217C7.55369 6.97217 8.00415 7.42279 8.00415 7.97356C8.00415 8.52432 7.56371 8.97495 7.01315 8.97495ZM7.00414 14.7339C6.81395 14.7339 6.62376 14.6638 6.47361 14.5136C6.33423 14.3722 6.25609 14.1815 6.25609 13.9829C6.25609 13.7843 6.33423 13.5936 6.47361 13.4522L12.4796 7.44382C12.7699 7.15342 13.2504 7.15342 13.5407 7.44382C13.831 7.73422 13.831 8.21489 13.5407 8.5053L7.53468 14.5136C7.38453 14.6638 7.19433 14.7339 7.00414 14.7339Z" fill="white"/>
</svg>
