<svg width="20" height="20" viewBox="0 0 20 20" fill="none" xmlns="http://www.w3.org/2000/svg">
<path opacity="0.4" d="M15.988 8.77253V12.7656C15.988 13.0251 15.978 13.2747 15.948 13.5143C15.7179 16.2096 14.1271 17.5473 11.1956 17.5473H10.7954C10.5453 17.5473 10.3052 17.6671 10.1551 17.8667L8.9545 19.464C8.42423 20.1727 7.5638 20.1727 7.03354 19.464L5.83293 17.8667C5.75285 17.7737 5.65497 17.6975 5.54502 17.6427C5.43507 17.5878 5.31527 17.5554 5.19261 17.5473H4.79241C1.6008 17.5473 0 16.7587 0 12.7656V8.77253C0 5.84762 1.35068 4.26038 4.04203 4.03078C4.28215 4.00083 4.53228 3.99084 4.79241 3.99084H11.1956C14.3872 3.99084 15.988 5.58807 15.988 8.77253Z" fill="white"/>
<path d="M7.99203 11.977C7.43175 11.977 6.99152 11.5278 6.99152 10.9787C6.99152 10.4297 7.44175 9.98047 7.99203 9.98047C8.5423 9.98047 8.99253 10.4297 8.99253 10.9787C8.99253 11.5278 8.55231 11.977 7.99203 11.977ZM11.4938 11.977C10.9335 11.977 10.4933 11.5278 10.4933 10.9787C10.4933 10.4297 10.9435 9.98047 11.4938 9.98047C12.0441 9.98047 12.4943 10.4297 12.4943 10.9787C12.4943 11.5278 12.0441 11.977 11.4938 11.977ZM4.50227 11.977C3.94199 11.977 3.50177 11.5278 3.50177 10.9787C3.50177 10.4297 3.952 9.98047 4.50227 9.98047C5.05255 9.98047 5.50278 10.4297 5.50278 10.9787C5.50278 11.5278 5.05255 11.977 4.50227 11.977Z" fill="white"/>
<path d="M19.9901 4.77949V8.77255C19.9901 11.7074 18.6394 13.2847 15.948 13.5143C15.9781 13.2747 15.9881 13.0252 15.9881 12.7656V8.77255C15.9881 5.58809 14.3873 3.99086 11.1956 3.99086H4.79243C4.5323 3.99086 4.28217 4.00084 4.04205 4.03079C4.27217 1.34546 5.86297 -0.00219727 8.79444 -0.00219727H15.1977C18.3893 -0.00219727 19.9901 1.59503 19.9901 4.77949Z" fill="white"/>
</svg>
