<svg width="20" height="20" viewBox="0 0 20 20" fill="none" xmlns="http://www.w3.org/2000/svg">
<path opacity="0.4" d="M19.0303 8.39263C19.0113 7.93707 18.9351 7.49101 18.7924 7.06394C18.4643 6.03952 17.8185 5.14554 16.948 4.51099C16.0775 3.87643 15.0274 3.53411 13.9492 3.53342H11.2945C10.7426 3.53342 10.7045 3.47647 10.4096 3.08736L9.07745 1.3221C8.45896 0.496412 7.97369 -0.0065918 6.42272 -0.0065918H4.20569C1.884 -0.0065918 0 1.87256 0 4.18827V13.8972C0 16.6969 2.28363 18.9747 5.0906 18.9747H13.9397C16.7467 18.9747 19.0303 16.6969 19.0303 13.8972V8.60142C19.0398 8.53214 19.0398 8.4619 19.0303 8.39263Z" fill="white"/>
<path d="M12.9321 16.8023C10.9244 16.9447 10.9244 19.8488 12.9321 19.9912H17.6992C18.2796 19.9912 18.8315 19.7824 19.2597 19.3932C20.6679 18.169 19.9162 15.7014 18.0608 15.4736C17.3947 11.4686 11.581 12.9871 12.9606 16.8023" fill="white"/>
</svg>
