<svg width="20" height="20" viewBox="0 0 20 20" fill="none" xmlns="http://www.w3.org/2000/svg">
<path opacity="0.4" d="M16.9771 7.04454C16.9771 8.50559 16.5482 9.84572 15.81 10.9642C15.2691 11.7791 14.5655 12.4708 13.7444 12.9948C12.9232 13.5188 12.0027 13.8637 11.0419 14.0072C10.7027 14.0676 10.3536 14.0979 9.99446 14.0979C9.63536 14.0979 9.28622 14.0676 8.94707 14.0072C7.98622 13.8637 7.06569 13.5188 6.24456 12.9948C5.42342 12.4708 4.71983 11.7791 4.17892 10.9642C3.41314 9.80372 3.00683 8.43918 3.01183 7.04454C3.01183 3.14506 6.13406 -0.00878906 9.99446 -0.00878906C13.8549 -0.00878906 16.9771 3.14506 16.9771 7.04454Z" fill="white"/>
<path d="M19.2214 16.5846L17.5755 16.9776C17.2064 17.0683 16.9171 17.3504 16.8373 17.7232L16.4882 19.2044C16.4454 19.3863 16.3533 19.5525 16.2224 19.6845C16.0914 19.8165 15.9266 19.9091 15.7466 19.952C15.5665 19.9948 15.3781 19.9863 15.2026 19.9272C15.027 19.8681 14.8712 19.7609 14.7525 19.6176L9.99435 14.0958L5.23618 19.6276C5.1175 19.771 4.96167 19.8782 4.78613 19.9373C4.61058 19.9963 4.42224 20.0049 4.24215 19.962C4.06206 19.9192 3.89732 19.8266 3.76634 19.6945C3.63537 19.5625 3.54332 19.3963 3.5005 19.2145L3.15137 17.7333C3.10893 17.5521 3.01741 17.3863 2.88705 17.2547C2.75668 17.123 2.59262 17.0305 2.4132 16.9877L0.767295 16.5947C0.59485 16.5529 0.43649 16.4656 0.30843 16.3417C0.18037 16.2178 0.087212 16.0618 0.0384958 15.8895C-0.0102204 15.7173 -0.0127445 15.5351 0.0311821 15.3615C0.0751088 15.188 0.163908 15.0294 0.288486 14.9019L4.17881 10.9722C4.71976 11.7871 5.42337 12.4787 6.2445 13.0027C7.06562 13.5268 7.98613 13.8716 8.94696 14.0152C9.28611 14.0757 9.63525 14.1059 9.99435 14.1059C10.3535 14.1059 10.7026 14.0757 11.0417 14.0152C13.0268 13.723 14.7326 12.5844 15.8099 10.9722L19.7002 14.9019C20.2489 15.446 19.9795 16.4032 19.2214 16.5846ZM10.5729 4.00148L11.1615 5.19047C11.2413 5.35169 11.4507 5.51291 11.6403 5.54314L12.7076 5.72451C13.3859 5.83535 13.5455 6.33915 13.0567 6.83289L12.2288 7.66921C12.0891 7.81028 12.0093 8.08233 12.0592 8.28386L12.2986 9.32171C12.4882 10.1379 12.0592 10.4603 11.341 10.027L10.3435 9.43254C10.2422 9.37794 10.1291 9.34938 10.0143 9.34938C9.89948 9.34938 9.78642 9.37794 9.68512 9.43254L8.6876 10.027C7.96939 10.4502 7.54045 10.1379 7.72998 9.32171L7.96939 8.28386C8.00929 8.09241 7.93946 7.81028 7.79981 7.66921L6.97187 6.83289C6.48308 6.33915 6.64269 5.84542 7.321 5.72451L8.38835 5.54314C8.5679 5.51291 8.77738 5.35169 8.85718 5.19047L9.44572 4.00148C9.735 3.3566 10.2537 3.3566 10.5729 4.00148Z" fill="white"/>
</svg>
