<svg width="20" height="21" viewBox="0 0 20 21" fill="none" xmlns="http://www.w3.org/2000/svg">
<path opacity="0.4" d="M0 11.9113V10.0469C0 8.94519 0.849154 8.03417 1.89811 8.03417C3.70631 8.03417 4.44557 6.67823 3.53648 5.01509C3.01699 4.0617 3.32669 2.82229 4.23578 2.27144L5.96406 1.22271C6.75327 0.724823 7.77226 1.02143 8.24179 1.8583L8.35168 2.05957C9.25078 3.72271 10.7293 3.72271 11.6384 2.05957L11.7483 1.8583C12.2178 1.02143 13.2368 0.724823 14.026 1.22271L15.7543 2.27144C16.6634 2.82229 16.9731 4.0617 16.4536 5.01509C15.5445 6.67823 16.2838 8.03417 18.092 8.03417C19.1309 8.03417 19.9901 8.9346 19.9901 10.0469V11.9113C19.9901 13.013 19.1409 13.924 18.092 13.924C16.2838 13.924 15.5445 15.28 16.4536 16.9431C16.9731 17.9071 16.6634 19.1359 15.7543 19.6868L14.026 20.7355C13.2368 21.2334 12.2178 20.9368 11.7483 20.0999L11.6384 19.8986C10.7393 18.2355 9.26077 18.2355 8.35168 19.8986L8.24179 20.0999C7.77226 20.9368 6.75327 21.2334 5.96406 20.7355L4.23578 19.6868C3.80031 19.4209 3.48211 18.9827 3.35101 18.4683C3.2199 17.9539 3.2866 17.4054 3.53648 16.9431C4.44557 15.28 3.70631 13.924 1.89811 13.924C0.849154 13.924 0 13.013 0 11.9113Z" fill="white"/>
<path d="M9.99005 14.4208C10.8511 14.4208 11.677 14.0581 12.2859 13.4125C12.8947 12.7668 13.2368 11.8911 13.2368 10.978C13.2368 10.0649 12.8947 9.18924 12.2859 8.54359C11.677 7.89794 10.8511 7.53522 9.99005 7.53522C9.12896 7.53522 8.30313 7.89794 7.69424 8.54359C7.08536 9.18924 6.74329 10.0649 6.74329 10.978C6.74329 11.8911 7.08536 12.7668 7.69424 13.4125C8.30313 14.0581 9.12896 14.4208 9.99005 14.4208Z" fill="white"/>
</svg>
