<svg width="21" height="16" viewBox="0 0 21 16" fill="none" xmlns="http://www.w3.org/2000/svg">
<path d="M14.14 1.19315L15.55 4.01315C15.74 4.40315 16.25 4.77315 16.68 4.85315L19.23 5.27315C20.86 5.54315 21.24 6.72315 20.07 7.90315L18.08 9.89315C17.75 10.2232 17.56 10.8732 17.67 11.3432L18.24 13.8032C18.69 15.7432 17.65 16.5032 15.94 15.4832L13.55 14.0632C13.12 13.8032 12.4 13.8032 11.97 14.0632L9.57996 15.4832C7.86996 16.4932 6.82996 15.7432 7.27996 13.8032L7.84996 11.3432C7.95996 10.8832 7.76996 10.2332 7.43996 9.89315L5.44996 7.90315C4.27996 6.73315 4.65996 5.55315 6.28996 5.27315L8.83996 4.85315C9.26996 4.78315 9.77996 4.40315 9.96996 4.01315L11.38 1.19315C12.13 -0.336846 13.37 -0.336846 14.14 1.19315Z" fill="white"/>
<path opacity="0.4" d="M6.75 1.73315H0.75C0.34 1.73315 0 1.39315 0 0.983154C0 0.573154 0.34 0.233154 0.75 0.233154H6.75C7.16 0.233154 7.5 0.573154 7.5 0.983154C7.5 1.39315 7.16 1.73315 6.75 1.73315ZM3.75 15.7332H0.75C0.34 15.7332 0 15.3932 0 14.9832C0 14.5732 0.34 14.2332 0.75 14.2332H3.75C4.16 14.2332 4.5 14.5732 4.5 14.9832C4.5 15.3932 4.16 15.7332 3.75 15.7332ZM1.75 8.73315H0.75C0.34 8.73315 0 8.39315 0 7.98315C0 7.57315 0.34 7.23315 0.75 7.23315H1.75C2.16 7.23315 2.5 7.57315 2.5 7.98315C2.5 8.39315 2.16 8.73315 1.75 8.73315Z" fill="white"/>
</svg>
