<svg width="20" height="20" viewBox="0 0 20 20" fill="none" xmlns="http://www.w3.org/2000/svg">
<path opacity="0.4" d="M14.19 -0.00439453H5.81002C2.17001 -0.00439453 0 2.16536 0 5.80495V14.174C0 17.8236 2.17001 19.9933 5.81002 19.9933H14.18C17.82 19.9933 19.9901 17.8236 19.9901 14.184V5.80495C20.0001 2.16536 17.83 -0.00439453 14.19 -0.00439453Z" fill="white"/>
<path d="M5.32998 13.2322C5.16998 13.2322 5.00997 13.1822 4.86997 13.0722C4.79183 13.0125 4.72623 12.9379 4.6769 12.8528C4.62758 12.7677 4.5955 12.6738 4.5825 12.5763C4.5695 12.4788 4.57583 12.3797 4.60113 12.2846C4.62644 12.1896 4.67022 12.1005 4.72997 12.0223L7.10998 8.93268C7.39998 8.56272 7.80998 8.32275 8.27998 8.26276C8.73998 8.20276 9.20999 8.33275 9.57999 8.62272L11.41 10.0626C11.48 10.1225 11.55 10.1225 11.6 10.1125C11.64 10.1125 11.71 10.0926 11.77 10.0126L14.08 7.0329C14.1397 6.95452 14.2145 6.88886 14.3 6.83978C14.3854 6.79069 14.4798 6.75917 14.5777 6.74706C14.6755 6.73495 14.7747 6.7425 14.8696 6.76927C14.9644 6.79603 15.053 6.84147 15.13 6.90291C15.46 7.15288 15.52 7.62283 15.26 7.95279L12.95 10.9325C12.66 11.3024 12.25 11.5424 11.78 11.5924C11.31 11.6524 10.85 11.5224 10.48 11.2324L8.64998 9.79259C8.62435 9.7701 8.59385 9.75388 8.56088 9.7452C8.5279 9.73653 8.49336 9.73563 8.45998 9.74259C8.41998 9.74259 8.34998 9.76259 8.28998 9.84258L5.90998 12.9322C5.77998 13.1322 5.55998 13.2322 5.32998 13.2322Z" fill="white"/>
</svg>
