<svg width="20" height="21" viewBox="0 0 20 21" fill="none" xmlns="http://www.w3.org/2000/svg">
<path opacity="0.4" d="M19.3391 15.1654L13.2119 3.42958C12.3885 1.85054 11.2492 0.984619 9.99504 0.984619C8.74086 0.984619 7.60158 1.85054 6.77822 3.42958L0.650946 15.1654C-0.124538 16.6629 -0.210703 18.0993 0.411599 19.2301C1.0339 20.3609 2.25936 20.9824 3.86777 20.9824H16.1223C17.7307 20.9824 18.9562 20.3609 19.5785 19.2301C20.2008 18.0993 20.1146 16.6527 19.3391 15.1654Z" fill="white"/>
<path d="M9.99505 13.9735C9.60252 13.9735 9.27701 13.6271 9.27701 13.2094V8.11573C9.27701 7.69805 9.60252 7.35168 9.99505 7.35168C10.3876 7.35168 10.7131 7.69805 10.7131 8.11573V13.2094C10.7131 13.6271 10.3876 13.9735 9.99505 13.9735ZM9.99505 17.2833C9.9376 17.2833 9.87059 17.2731 9.80357 17.2629C9.74358 17.2519 9.68549 17.2313 9.63124 17.2018C9.57022 17.1796 9.51226 17.1487 9.45891 17.1101L9.3153 16.9879C9.14297 16.7943 9.03766 16.5295 9.03766 16.2646C9.03766 15.9997 9.14297 15.7348 9.3153 15.5413L9.45891 15.419C9.51635 15.3783 9.5738 15.3477 9.63124 15.3274C9.68868 15.2968 9.74613 15.2764 9.80357 15.2662C9.92803 15.2357 10.0621 15.2357 10.1769 15.2662C10.244 15.2764 10.3014 15.2968 10.3589 15.3274C10.4163 15.3477 10.4737 15.3783 10.5312 15.419L10.6748 15.5413C10.8471 15.7348 10.9524 15.9997 10.9524 16.2646C10.9524 16.5295 10.8471 16.7943 10.6748 16.9879L10.5312 17.1101C10.4737 17.1509 10.4163 17.1814 10.3589 17.2018C10.3014 17.2324 10.244 17.2528 10.1769 17.2629C10.1195 17.2731 10.0525 17.2833 9.99505 17.2833Z" fill="white"/>
</svg>
